<svg version="1.2" xmlns="http://www.w3.org/2000/svg" viewBox="0 0 377 557" width="377" height="557">
	<title>export60</title>
	<style>
		.s0 { fill: #e7402f } 
	</style>
	<g>
		<g id="Složka 1">
			<path class="s0" d="m224.3 14.5c-10.2 4.4-31.3 21.1-41.5 32.9-17.3 20-25.4 39.9-26.3 64.6-0.4 12.1-1.2 13-7.2 8.1-12.3-9.8-30.8-10.6-44.5-1.9-12.6 7.9-18.3 26.2-14.5 45.8 0.8 4.1 1.4 7.7 1.2 7.9-0.2 0.1-2.8-0.5-5.7-1.5-7.5-2.6-19.8-2.5-25.9 0.3-11.5 5.2-17.9 15.5-18.6 30.2-0.3 6.3 0 10.5 1.4 15.6l1.8 7-8 0.1c-18.7 0-28.6 11.1-27.2 30.6 0.9 13.7 8.4 26.2 20.2 34l6.3 4.1-1.9 3.1c-3.4 5.9-7.8 17.6-10.3 27.9-11.3 45.8-0.7 102.8 26.9 144.7 26.4 40 67.8 66.2 116.3 73.5 11.5 1.8 37.5 2 48.7 0.5 46-6.4 89.9-34.7 115.7-74.5 19.1-29.3 32.6-71.8 35.8-111.9 1.3-16.8 1.3-60.5 0-77.7-4.1-51.4-18.3-104.5-36.3-135-16.9-28.7-35-45.2-61.5-56-12.6-5.2-17.2-7.9-22.1-13.5-7.4-8.5-10.9-27-8.2-43.8 1-6.2 1-8-0.3-11-2.2-5.4-7.8-7-14.3-4.1zm-3.3 54c3.7 11.1 11.1 20.8 21.3 27.7 3.3 2.2 11.8 6.7 19 9.9 16.1 7.2 21.5 10.8 31.5 20.6 18.2 18.1 32.6 47.1 42.2 85.2 17 68 17.2 144 0.5 196.9-12.1 38-29.5 64-56.3 84.2-18.5 13.9-38.1 23-59.2 27.5-10.1 2.2-33.3 3-45.1 1.6-25.2-2.9-51.4-13.1-72.2-28.1-8.7-6.3-24.4-22.2-30.6-31.1-21.2-30.1-32-64.3-32.1-100.9 0-16.8 1.9-29.5 6.4-42.7 4.5-13.5 9.7-23 16.4-30.5 3-3.4 6.4-8.2 7.5-10.7 2.8-6.3 3.3-15.3 1.3-22.9-2-7.9-2-7.5 0.7-6 1.3 0.7 5.8 1.3 10.8 1.3 7.6 0 9.2-0.3 14.4-3 11-5.6 16.3-16.2 15.2-30.5-0.3-4.2-0.9-8.4-1.3-9.5-0.6-1.5-0.1-1.4 2.8 0.8 1.9 1.5 6.4 3.9 9.9 5.4 8.6 3.6 22.8 3.9 30 0.6 10.4-4.7 16.7-13.6 19.6-27.9 1.4-6.8 1.5-9.7 0.4-21.6-1.1-13.5-1.1-13.8 1.5-21.5 2.4-7.5 2.5-8.2 1.5-18.8-2.6-27.4 6.2-49 29.3-72l10.1-9.9 1.2 9.8c0.7 5.5 2.2 12.7 3.3 16.1zm-87.3 65.6c11.2 5.4 21 27 20.1 44.4-0.7 12.8-5.2 18.6-14.6 18.7-9.6 0-17-6.1-22.9-18.8-8.2-17.8-8.5-35.5-0.6-42.6 4.6-4.2 11.5-4.8 18-1.7zm-51.5 57.2c11.7 6.4 16.7 32 7.4 38-8.6 5.6-19.4 0.3-25.1-12.5-9-20 1.1-34.6 17.7-25.5zm-37.7 55.8c5.2 4.8 8.5 11.1 8.5 16.3 0 5-1.3 7.2-5.1 8.5-10.5 3.7-24.4-18.4-16.7-26.6 3.5-3.7 8-3.1 13.3 1.8z"/>
			<path class="s0" d="m205.3 148.5c-6.5 3.3-10.8 8.1-14.4 16.2-5.6 12.2-6.2 27-1.6 39.6 5.6 15.4 15.7 22.8 31.2 23 10.2 0 17-3.8 23.2-13.2 5.2-7.8 7.4-15.8 7.4-26.7 0.1-13.8-3.3-23.3-11.1-31.8-5.9-6.3-11.9-9-21.5-9.4-7-0.3-8.6 0-13.2 2.3zm19.6 19.6c4 3.8 6.1 9.7 6.1 17.8 0 13.4-4.2 21.1-11.7 21.1-7.2 0-11.6-5.8-12.8-16.6-1.6-13.7 3.8-24.4 12.2-24.4 2.6 0 4.7 0.7 6.2 2.1z"/>
			<path class="s0" d="m173 232.5c-0.8 0.2-4.9 0.9-9 1.5-45.2 7.3-88.6 44.2-100.5 85.4-6.7 23.4-5.3 46.6 4.5 75 14.5 42.1 42.9 77.8 76 95.8 34.7 18.8 75.3 16.5 98.7-5.6q18.4-17.4 18.6-41.1c0-16.7-6-28.4-25.1-48.6-12.4-13.1-14.9-17.8-13.8-25.6 0.9-6.7 5.3-15.6 13.8-27.8 18.9-27.1 21.3-33.2 21.2-52.5 0-11.9-0.2-12.8-3.2-19.4-11-23.8-32.8-35.8-67.2-37.1-6.9-0.2-13.2-0.2-14 0zm33.5 23c18 5 27.9 14.4 30.6 29 2.1 11.3-1.3 20.1-16.5 42.5-13.9 20.4-17 27.1-18.6 39.4-2 16 2 25.1 18.9 42.3 9.7 9.9 12.6 13.6 15.8 19.9 3.4 7 3.8 8.6 3.8 15.3 0 6.4-0.5 8.6-2.9 13.6-8.2 16.7-27.7 26.5-50.1 25.2-23.9-1.3-50.8-17.1-70.1-41.1-16.4-20.4-29.6-47.2-34.6-70.5-2.7-12.5-2.9-32.5-0.5-42.4 4-16 12.1-29 27.3-43.7 17.2-16.6 33.4-25.7 54.4-30.6 7.7-1.8 34.5-1.1 42.5 1.1z"/>
		</g>
	</g>
</svg>